<?xml version="1.0" encoding="UTF-8"?>
<svg id="Layer_1" xmlns="http://www.w3.org/2000/svg" xmlns:xlink="http://www.w3.org/1999/xlink" version="1.1" viewBox="0 0 298 114">
  <!-- Generator: Adobe Illustrator 29.5.1, SVG Export Plug-In . SVG Version: 2.1.0 Build 141)  -->
  <defs>
    <style>
      .st0 {
        fill: none;
      }

      .st1 {
        fill: #1e4066;
      }

      .st2 {
        fill: #d84540;
      }

      .st3 {
        clip-path: url(#clippath);
      }
    </style>
    <clipPath id="clippath">
      <rect class="st0" width="298" height="114"/>
    </clipPath>
  </defs>
  <g class="st3">
    <g>
      <path class="st1" d="M166,89.5l-.3-.9c-.4.7-1.2,1.2-2.1,1.2-2,0-3-1.4-3-2.9v-4.7c0-1.5,1.2-2.9,3.3-2.9s3.2,1.3,3.2,2.9v.7h-2.1v-.8c0-.5-.3-1-1.1-1s-1.2.5-1.2,1.1v4.7c0,.5.4,1.1,1.2,1.1s1.2-.5,1.2-1.1v-1h-1.2v-1.5h3.2v5.1h-1.2Z"/>
      <path class="st1" d="M173.6,82c0-.5-.2-.8-.8-.8h-1.2v2.8h1.1c.5,0,.8-.3.8-.9v-1h0ZM174.9,89.6c-.9,0-1.2-.6-1.2-1.5v-1.6c0-.5-.3-1-.9-1h-1.1v4.1h-2.1v-10h3.6c1.6,0,2.6.9,2.6,2.4v1.1c0,.8-.4,1.4-1.3,1.7.9.2,1.3,1,1.3,1.6v1.6c0,.5.1.8.4,1v.6h-1.3Z"/>
      <path class="st1" d="M180.3,79.5h-2.1v10h2.1v-10Z"/>
      <path class="st1" d="M182.8,89.5v-10h2.1v8.2h3.3v1.8h-5.4Z"/>
      <path class="st1" d="M190.2,89.5v-10h2.1v8.2h3.3v1.8h-5.4Z"/>
      <path class="st1" d="M205.3,80.9c-.6,0-.9.5-.9,1.1s.1.8.3,1.2c.9-.5,1.2-1.1,1.2-1.6s-.2-.8-.6-.8M203.8,85.5c-.5.3-.8.8-.8,1.4s.5,1.2,1.3,1.2.7-.1.9-.3c-.6-.7-1.1-1.4-1.5-2.2M208.2,89.8c-.6,0-1.2-.3-1.8-.8-.7.5-1.6.8-2.4.8-1.7,0-2.9-1.3-2.9-2.7s.8-2.3,2.1-3c-.3-.7-.5-1.4-.5-2,0-1.7,1.1-2.8,2.7-2.8s2.3,1,2.3,2.3-.8,2-2.3,2.9c.4.7.8,1.6,1.3,2.2.5-.7.8-1.7.8-2.3h1.5c0,1.1-.5,2.4-1.2,3.5.3.2.6.4.9.4s.5-.2.5-.5v-.7h1v1c0,1.1-.6,1.7-1.7,1.7"/>
      <path class="st1" d="M140.8,105c-1.9,0-3.2-1.1-3.2-2.8v-.5h2v.3c0,.8.4,1.3,1.2,1.3s1.1-.4,1.1-1.1-.6-1.1-1.7-1.8c-1.2-.6-2.5-1.4-2.5-3s1.1-2.9,3.1-2.9,3,1.2,3,2.8v.4h-1.9v-.3c0-.7-.4-1.2-1.1-1.2s-1,.4-1,1,.6,1.1,1.8,1.8c1.4.8,2.4,1.6,2.4,3s-1.2,3-3.2,3"/>
      <path class="st1" d="M150.3,97.3c0-.5-.2-.8-.8-.8h-1.2v3h1.2c.6,0,.8-.3.8-.8v-1.3h0ZM149.8,101.1h-1.5v3.7h-2.1v-10h3.6c1.7,0,2.5,1,2.5,2.5v1.3c0,1.5-.9,2.5-2.5,2.5"/>
      <path class="st1" d="M158.8,97.5c0-.7-.4-1.1-1.1-1.1s-1.1.4-1.1,1.1v4.6c0,.7.4,1.1,1.1,1.1s1.1-.4,1.1-1.1v-4.6ZM157.7,105c-2,0-3.3-1.3-3.3-3.1v-4.4c0-1.8,1.2-3.1,3.3-3.1s3.3,1.3,3.3,3.1v4.4c0,1.8-1.2,3.1-3.3,3.1Z"/>
      <path class="st1" d="M167.5,97.3c0-.5-.2-.8-.8-.8h-1.2v2.8h1.1c.5,0,.8-.3.8-.9v-1h0ZM168.8,104.8c-.9,0-1.2-.6-1.2-1.5v-1.6c0-.5-.3-1-.9-1h-1.1v4.1h-2.1v-10h3.6c1.6,0,2.6.9,2.6,2.4v1.1c0,.8-.4,1.4-1.3,1.7.9.2,1.3,1,1.3,1.6v1.6c0,.5.1.8.4,1v.6h-1.3Z"/>
      <path class="st1" d="M175.8,96.6v8.2h-2.1v-8.2h-2.1v-1.8h6.4v1.8h-2.1Z"/>
      <path class="st1" d="M182.5,105c-1.9,0-3.2-1.1-3.2-2.8v-.5h1.9v.3c0,.8.4,1.3,1.2,1.3s1.1-.4,1.1-1.1-.6-1.1-1.7-1.8c-1.2-.6-2.5-1.4-2.5-3s1.1-2.9,3.1-2.9,3,1.2,3,2.8v.4h-1.9v-.3c0-.7-.4-1.2-1.1-1.2s-1,.4-1,1,.6,1.1,1.8,1.8c1.4.8,2.4,1.6,2.4,3s-1.2,3-3.2,3"/>
      <path class="st1" d="M196.2,104.8v-4h-2.5v4h-2.1v-10h2.1v4.1h2.5v-4.1h2.1v10h-2.1Z"/>
      <path class="st1" d="M205.1,97.5c0-.7-.4-1.1-1.1-1.1s-1.1.4-1.1,1.1v4.6c0,.7.4,1.1,1.1,1.1s1.1-.4,1.1-1.1v-4.6ZM204,105c-2,0-3.3-1.3-3.3-3.1v-4.4c0-1.8,1.2-3.1,3.3-3.1s3.3,1.3,3.3,3.1v4.4c0,1.8-1.2,3.1-3.3,3.1Z"/>
      <path class="st1" d="M212.9,105c-1.9,0-3.2-1.1-3.2-2.8v-7.4h2.2v7.4c0,.7.4,1.1,1.1,1.1s1.1-.4,1.1-1.1v-7.4h2.1v7.4c0,1.7-1.3,2.8-3.2,2.8Z"/>
      <path class="st1" d="M221.5,105c-2,0-3.2-1.1-3.2-2.8v-.5h1.9v.3c0,.8.4,1.3,1.2,1.3s1.1-.4,1.1-1.1-.6-1.1-1.7-1.8c-1.2-.6-2.5-1.4-2.5-3s1.1-2.9,3.1-2.9,3,1.2,3,2.8v.4h-1.9v-.3c0-.7-.4-1.2-1.1-1.2s-1,.4-1,1,.6,1.1,1.8,1.8c1.4.8,2.4,1.6,2.4,3s-1.2,3-3.2,3"/>
      <path class="st1" d="M226.9,104.8v-10h5.5v1.8h-3.4v2.2h2.4v1.6h-2.4v2.5h3.4v1.9h-5.5Z"/>
      <path class="st2" d="M78.2,65.7c-1.9,1.3-3.1,1.6-5.3.3-2.6-1.5-3.4-3.5-4.1-5.7-1.8-9.3.8-20.4,8.3-25.3,1.8-1.1,4.7-1.9,6.5.1-1.7,2.3-2.9,5.2-2.7,8.3.2,1.5.3,3.8,2.5,4.8l2.6.4c0,7.4-4.9,15.4-7.9,17.1ZM17.7,100.3c-1.2,3.5-2.9,9.2-5.7,9.8-2.9.2-3.1-6.1-2.8-9.5.7-12.4,7.3-22.2,16.2-29-2.2,9.9-5.6,19.1-7.8,28.7M65.7,8.7c.7,20.9-10.4,30.4-10.4,30.4,1.9-14.7,10.4-30.4,10.4-30.4ZM117.4,33.8c-.3-1.8-1.1-2.8-2.3-3-3.4-1.1-6,1.3-8.3,3.7.2-1.7-1.1-2.5-2.1-2.9-6.1-1.4-9.7,7.3-14.1,11.3l-.2-.2c0-5.5-4.7-9.7-8.7-11.5h1.3c0,0,0-.3,0-.3-.5-.8-1.2-1.1-2.2-1-3.9,1.1-7,2-10.8,4.8-6.7,5.7-11.1,14.3-9.3,24.3-2.9,3.7-7.7,7.2-10.5,7-1.7-.2-1.7-1.9-2.1-3.8-.7-4.9,1.4-9.6,3.9-13.6,4.4-5.4,8.8-10.5,12.5-16.4,3.9-5.9,6.3-11.9,7.4-19,.6-4.4,1.9-10-2.5-12.7-2.6-1.4-6.2.2-8.4,4-3.1,5.7-5.7,11.6-8.2,18.3-4,11.5-7.9,23.5-10.8,35.5-2,1.4-4.3,2.1-6.3,2.5,1.8-8.9,4.6-17,7.9-25,0-.6-.2-1-.7-1-2.8,2.8-5.7,5.4-8.9,6.9l-3.6,9.1-6.2,7.4c-2.8,2.6-8.4,11.5-10.9,5.5-2.4-7.6-3.8-15.3-1.8-26.4,1.7-6.7,3.9-12.4,7-17.8,3-5.4,9.5-16.3,17.7-12.9,7.4,4.8,5,20.2.5,26.4-1.4,2.5-4.2,5.3-7.4,4.5-2.5-.3-3.2-2.8-4.6-8.2-.3.1-.6.4-.8.9-.5,4.8,1.1,9.6,6,9.9,5.1.5,10.5-6.3,12.6-10.3,1.9-4.3,4.3-9.5,2.3-16.6-2.1-5.2-5.2-6.6-7-7.9-6.9-3.9-16.6-.1-23.9,9.3C4.8,27,2.1,35.9.2,49.8c-.9,8.4,1.3,17.5,7.3,21.2,9,4.4,15.3-10.3,22.2-15.5-.8,4-1.8,7-2.7,10.6-11.8,8.7-22.3,20.1-25.2,35.5-.4,3.5-.2,6.9,1.9,9.8,5.6,5.7,11.2.8,11.2.8,14.4-9.7,16.3-28.7,19.7-46.2,1.9-2,4.4-3.1,6.8-3.9,0,0-.2,2.8-.1,4.1,0,1.4,1.2,3.2,2.6,3.7,7,3.4,12.2-4.1,17.2-8.4.9,4.9,5.1,7.7,9,8.7,6.1,1.4,11.2-.8,15.3-7.1,3-4.6,6-10.6,5.6-17.6l4.8-4.9.2.2c-2.7,9-5.6,17.9-9.1,26.4-.4,1.3,0,2,1.1,2.7,3.1,1.2,4.9-1.9,7.6-2.2,3.2-9.6,6.6-19.4,10.3-28.8.6-1,1.2-2.8,3-.9,0,0,1.7,1.6-.1,5.6.4,1.1,1.6,1.4,2.4.7,3.6-2.1,7-4.8,6.5-10.4"/>
      <path class="st2" d="M203.9,36.2c-.9,5.3-1.3,8.2-3.4,12.4-3.1,8.6-17.2,18.2-26.2,17.2l-8-1.4c1.7-1.6,1.8-2,3.4-4.7,3.3-6.5,3.8-13.2,6.4-19.6,3.5-8.6,6.8-17.2,12.7-24.3,1.3-1.4,2.9-.5,4.7.6,13,6.8,10.5,16.3,10.4,19.9M151.9,66.3c-2.2-.9-4.6-1.6-4.8-3.6.4-3.3,4.3-1.2,5.6-.4l5.3,3.3c0,1.4-4.4,1.4-6.1.8M211,30.3c-4.2-8.5-11.4-15.5-20.2-17,3.5-4,7.2-7.9,12-9.5l.7-1.5v-.4c-5.5,1.3-10.3,3.5-14.9,7.6-4.6,4.5-5.9.5-16.9,2.3-8.2,1.5-11.8,3.9-17.1,9.3-2.8,3.4-4.6,7.1-4.7,12.8,0,2,.5,3.6,2.1,4,2.2.6,9-1.5,13.3-3.2.5-.4-.1-.9-.4-1.1-2,1.2-2.8,0-3.6-1.4-1-2.5-.8-6.1.8-8.1,4.7-7.2,12.8-11.4,20.6-10.5l-.4.3c-2.6,1.9-4.7,4.4-6.8,6.8-9.3,11.5-10,28.5-16,42.1-5-1-9.4-4.5-14.4-3.9-1.5.3-2.6,1.6-2.6,3.5.4,3.5,3.2,4.8,4.5,6.1,4.3,3.1,10.2,2.3,14-1,9.9,0,20.1,3.7,29.5,1.2,2.7-.5,7.6-3.6,7.6-3.6,4.2-2.7,12.1-8.6,14.5-21.2.5-3,.9-7.7-1.8-13.4"/>
      <path class="st2" d="M122.2,92.4c-.8.9-1.9,2-2.8,1.4-2.6-3.9-.2-9.6,1.9-13.1,2.8-4.9,5.6-9.3,9.3-13.6-1.7,9.1-5.2,22.4-8.3,25.3M137.3,61.9c1.3-6,2.8-10.7,4.6-16.9,1.1-3.8,1.9-7.9,2.8-11.8l-.3-.9c-2.7.3-5.8.3-8.7.4-.9,0-1.2-1-1.7-.1,0,1.3,1.5,1,2,1.9-2.6,8.4-4.4,16.8-6.6,24.8-.6,1-4,3.9-6.5,3.9-1.1-.3-1.7-.7-1.4-2.5,2.5-8.8,4.8-16.8,7.4-25.3.4-1,.6-1.4-.1-2.8-3.3.7-4.8.5-8.9-.6-.3,1.3-.4,3.1.2,4.7-2.5,9.7-6.1,18-7.7,28.2-.3,1.6,1,3,2.2,3.3,4.7,1,9.5-1.9,13.6-5.2,0,.4-.4,1.5-.8,2.5-.8.8-1.4,1.5-1.3,1.5-6.6,7.5-14.4,15.4-13,26.3.3,2.6,2.6,4.6,5,4.7,11.5.6,14.3-17.5,15.9-23.9,0,0,.5-1.9,1.1-4.5h0c.7-2.6,1.2-4.7,1.4-5.7l5.4-3.1v-.6c-1.4-.9-3.3,1-4.8,1.6"/>
      <path class="st2" d="M248.8,92.1c-.8.9-1.9,2-2.8,1.4-2.6-4-.2-9.6,1.9-13.1,2.8-4.9,5.6-9.3,9.3-13.6-1.7,9.1-5.2,22.4-8.3,25.3M232,39.5c0,2.8-3.3,23.2-11.3,24.3-2.2-.1-1.7-2-1.8-4.1.6-9.3,3.7-15.4,8.3-21.3,1-1.8,5.4-2.4,4.8,1.1ZM297.8,54c-.1-.1-.3-.2-.5-.2-.3,0-1.2,1-2.9,3.2-1.6,2.2-3.2,4.1-4.7,5.8.4-1.2.6-2.4.7-3.6.1-1.2.1-2.4,0-3.7-.1-1.6-.7-4.2-1.6-7.7-.9-3.5-1.5-6-1.6-7.6-.2-2.3.3-3.6,1.6-4,.3,0,.5-.1.7-.2.7-.3,1.2-.7,1.6-1.1.3-.5.5-1,.4-1.7,0-.8-.3-1.4-.7-1.9-.4-.5-.9-.8-1.6-.9-.8-.1-2.3,0-3,.7-.7.8-1.1,2.4-1.6,4-1.2,1.5-15.4,16.1-18.9,21.3,0,0,1.2-6.3,2.8-11.8,1.1-3.8,2-7.9,2.8-11.8l-.2-.9c-2.7.3-5.8.3-8.7.4-.9,0-1.2-1-1.7-.1,0,1.3,1.5,1,2,1.9-2.6,8.4-4.4,16.8-6.6,24.8-.6,1-4,3.9-6.5,3.9-1-.3-1.7-.7-1.4-2.5,2.5-8.7,4.8-16.8,7.4-25.3.4-1,.6-1.4,0-2.8-3.3.7-4.8.5-8.9-.6-.3,1.3-.4,3.1.2,4.7-1.9,7.6-4.6,14.3-6.4,21.8-1.8,1.6-3.6,3-5.3,3.7-1.6.1-.9-2.7-.6-3.9,2.2-7.6,4.3-15.2,7.7-21.9.6-.9.8-2.4.4-3.1-1.1-1.7-5.1.8-7.1-.6,0,1.4-1,3.1-1.5,4.7,0,0-.5-1.7-1.7-3.1-1.5-1.7-3.6-2.2-6-1.2-6.7,3.3-10.1,10-13.4,16.1-2.2,4.7-6.2,13.9-1.5,19.9,1,1.5,3.4.8,4.6,0l9.5-6c-.5,1.1-.7,2.4-.8,3.9,0,1.8,1.9,2.7,3.1,2.2,4-1,8.1-4.4,11.8-7.4-.2,1-.4,2-.6,3.1-.3,1.6,1,3,2.2,3.3,4.7,1,9.5-1.9,13.6-5.2,0,.4-.4,1.4-.8,2.4-.9.9-1.6,1.7-1.5,1.7-6.6,7.5-14.3,15.4-12.9,26.3.3,2.6,2.6,4.6,5,4.7,10,.5,13.4-13.1,15.2-20.8,0-.2,0-.3.1-.5,0,0,2.8-10,3.3-11.7,3-3.4,17-20.5,19.4-23.4.2,1.3.3,2.3.4,2.8.6,7.1.3,11.7-1.3,16.7-1.4,4.5-2.7,6.6-4.3,6.4-.5,0-.9-.2-1.2-.5-.3-.3-.5-.6-.5-1.1,0-.6.1-1.4.4-2.4s.5-1.7.5-2.2c0-.7-.3-1.3-.8-1.8-.5-.5-1-.8-1.7-1-.9-.1-1.6.2-2.2.9-.6.7-.8,1.6-.8,2.7.2,2,1,3.7,2.4,5.1,1.4,1.4,3.2,2.3,5.4,2.6,2.4.4,4.7-.1,6.9-1.5,2.2-1.3,5-4,8.2-7.9,1.4-1.7,2.3-2.9,2.9-3.7.5-.8.8-1.4.8-1.8,0-.2,0-.3-.2-.5"/>
      <path class="st2" d="M296,66.6c0-.1,0-.2-.2-.2h-.4v.6h.4c.2,0,.3-.1.3-.3h0ZM296.5,68.1c-.3,0-.4,0-.4-.3v-.2c0-.2,0-.3-.3-.3h-.4v.8h-.4v-2h.8c.5,0,.6.2.6.6s0,.4-.4.5c.2,0,.4.2.4.4v.2s0,0,.1,0v.3h-.1,0ZM295.7,65.1c-1.1,0-1.9.9-1.9,2s.8,2,1.9,2,1.9-.9,1.9-2-.8-2-1.9-2ZM295.7,69.4c-1.3,0-2.3-1-2.3-2.3s1-2.3,2.3-2.3,2.3,1,2.3,2.3-1,2.3-2.3,2.3Z"/>
    </g>
  </g>
</svg>